<svg width="78" height="57" viewBox="0 0 78 57" fill="none" xmlns="http://www.w3.org/2000/svg">
<path d="M22.2656 55.0782H74.3164C76.2696 55.0782 77.8809 53.5157 77.8809 51.5625C77.8809 49.5606 76.2696 48.0469 74.3164 48.0469H22.2656C20.3125 48.0469 18.75 49.5606 18.75 51.5625C18.75 53.5157 20.3125 55.0782 22.2656 55.0782Z" fill="black"/>
<path d="M4.98048 56.543C7.71488 56.543 9.96098 54.2969 9.96098 51.5625C9.96098 48.7793 7.71488 46.5821 4.98048 46.5821C2.24608 46.5821 0 48.7793 0 51.5625C0 54.2969 2.24608 56.543 4.98048 56.543Z" fill="black"/>
<path d="M22.2656 31.7871H74.3164C76.2696 31.7871 77.8809 30.2246 77.8809 28.2715C77.8809 26.3184 76.2696 24.7559 74.3164 24.7559H22.2656C20.3125 24.7559 18.75 26.3184 18.75 28.2715C18.75 30.2246 20.3125 31.7871 22.2656 31.7871Z" fill="black"/>
<path d="M4.98048 33.252C7.71488 33.252 9.96098 31.0059 9.96098 28.2715C9.96098 25.5371 7.71488 23.2911 4.98048 23.2911C2.24608 23.2911 0 25.5371 0 28.2715C0 31.0059 2.24608 33.252 4.98048 33.252Z" fill="black"/>
<path d="M22.2656 8.49611H74.3164C76.2696 8.49611 77.8809 6.9336 77.8809 4.9805C77.8809 3.0274 76.2696 1.4649 74.3164 1.4649H22.2656C20.3125 1.4649 18.75 3.0274 18.75 4.9805C18.75 6.9336 20.3125 8.49611 22.2656 8.49611Z" fill="black"/>
<path d="M4.98048 9.961C7.71488 9.961 9.96098 7.7149 9.96098 4.9805C9.96098 2.2461 7.71488 0 4.98048 0C2.24608 0 0 2.2461 0 4.9805C0 7.7149 2.24608 9.961 4.98048 9.961Z" fill="black"/>
</svg>
