<svg width="111" height="75" viewBox="0 0 111 75" fill="none" xmlns="http://www.w3.org/2000/svg">
<path d="M28.125 34.375C35.2539 34.375 41.5528 27.9297 41.5528 19.5801C41.5528 11.2304 35.2539 5.22461 28.125 5.22461C21.0449 5.22461 14.6973 11.3769 14.6973 19.6777C14.6973 27.9297 21.0449 34.375 28.125 34.375ZM7.12888 69.1406H49.1699C54.3946 69.1406 56.2989 67.0898 56.2989 63.623C56.2989 53.0762 45.459 40.2344 28.125 40.2344C10.8399 40.2344 0 53.0762 0 63.623C0 67.0898 1.90428 69.1406 7.12888 69.1406Z" fill="black"/>
<path d="M48.584 74.8535H95.8004C106.884 74.8535 110.156 69.4824 110.156 63.916C110.156 50.7324 95.1664 34.6191 72.168 34.6191C49.1699 34.6191 34.1797 50.7324 34.1797 63.916C34.1797 69.4824 37.5 74.8535 48.584 74.8535Z" fill="black"/>
<path d="M72.168 33.4961C80.3711 33.4961 87.5977 26.123 87.5977 16.5039C87.5977 6.9336 80.3711 0 72.168 0C64.0137 0 56.7871 7.12891 56.7871 16.6015C56.7871 26.123 64.0137 33.4961 72.168 33.4961ZM48.584 69.1406H95.8004C102.343 69.1406 104.492 67.2851 104.492 63.916C104.492 54.0039 92.0894 40.332 72.168 40.332C52.2949 40.332 39.8926 54.0039 39.8926 63.916C39.8926 67.2851 42.041 69.1406 48.584 69.1406Z" fill="black"/>
</svg>
